<?xml version="1.0" encoding="UTF-8"?>
<svg id="Layer_1" xmlns="http://www.w3.org/2000/svg" xmlns:xlink="http://www.w3.org/1999/xlink" version="1.1" viewBox="0 0 64 47.6">
  <!-- Generator: Adobe Illustrator 29.1.0, SVG Export Plug-In . SVG Version: 2.1.0 Build 142)  -->
  <defs>
    <style>
      .st0 {
        stroke: #fbbf24;
      }

      .st0, .st1, .st2, .st3, .st4, .st5 {
        stroke-miterlimit: 10;
      }

      .st0, .st2, .st3, .st4 {
        fill: none;
        stroke-linecap: round;
        stroke-width: 2px;
      }

      .st1 {
        fill: url(#linear-gradient);
        stroke: #f8af18;
      }

      .st1, .st5 {
        stroke-width: .5px;
      }

      .st2 {
        stroke: url(#linear-gradient2);
      }

      .st3 {
        stroke: url(#linear-gradient4);
      }

      .st4 {
        stroke: url(#linear-gradient3);
      }

      .st5 {
        fill: url(#linear-gradient1);
        stroke: #e6effc;
      }
    </style>
    <linearGradient id="linear-gradient" x1="17.2" y1="-668.5" x2="22.2" y2="-677.1" gradientTransform="translate(0 -660) scale(1 -1)" gradientUnits="userSpaceOnUse">
      <stop offset="0" stop-color="#fbbf24"/>
      <stop offset=".5" stop-color="#fbbf24"/>
      <stop offset="1" stop-color="#f59e0b"/>
    </linearGradient>
    <linearGradient id="linear-gradient1" x1="21.8" y1="-670.2" x2="38.4" y2="-699" gradientTransform="translate(0 -660) scale(1 -1)" gradientUnits="userSpaceOnUse">
      <stop offset="0" stop-color="#f3f7fe"/>
      <stop offset=".5" stop-color="#f3f7fe"/>
      <stop offset="1" stop-color="#deeafb"/>
    </linearGradient>
    <linearGradient id="linear-gradient2" x1="22.4" y1="-692.5" x2="23.9" y2="-694.9" gradientTransform="translate(0 -660) scale(1 -1)" gradientUnits="userSpaceOnUse">
      <stop offset="0" stop-color="#4286ee"/>
      <stop offset=".5" stop-color="#4286ee"/>
      <stop offset="1" stop-color="#0950bc"/>
    </linearGradient>
    <linearGradient id="linear-gradient3" x1="29.4" y1="-692.5" x2="30.9" y2="-694.9" gradientTransform="translate(0 -660) scale(1 -1)" gradientUnits="userSpaceOnUse">
      <stop offset="0" stop-color="#4286ee"/>
      <stop offset=".5" stop-color="#4286ee"/>
      <stop offset="1" stop-color="#0950bc"/>
    </linearGradient>
    <linearGradient id="linear-gradient4" x1="36.4" y1="-692.5" x2="37.9" y2="-694.9" gradientTransform="translate(0 -660) scale(1 -1)" gradientUnits="userSpaceOnUse">
      <stop offset="0" stop-color="#4286ee"/>
      <stop offset=".5" stop-color="#4286ee"/>
      <stop offset="1" stop-color="#0950bc"/>
    </linearGradient>
  </defs>
  <g>
    <circle class="st1" cx="19.6" cy="12.8" r="5"/>
    <path class="st0" d="M19.6,4.5V1.3M19.6,24.3v-3.2M25.5,6.9l2.2-2.2M11.5,20.9l2.2-2.2M13.7,6.9l-2.2-2.2M27.7,20.9l-2.2-2.2M8.1,12.8h3.2M31.1,12.8h-3.2"/>
  </g>
  <path class="st5" d="M45.6,19.7h-.3c1.4-5.6-2.1-11.3-7.7-12.7-4.4-1.1-9,.8-11.4,4.7-3.3-2-7.6-.9-9.6,2.5-.6,1.1-1,2.3-1,3.5s0,.8.1,1.1c-4.1.8-6.7,4.7-5.9,8.8.7,3.5,3.7,6,7.3,6.1h28.5c3.9,0,7-3.1,7-7s-3.1-7-7-7Z"/>
  <line class="st2" x1="23.2" y1="33.2" x2="23" y2="34.2"/>
  <line class="st4" x1="30.2" y1="33.2" x2="30" y2="34.2"/>
  <line class="st3" x1="37.2" y1="33.2" x2="37.1" y2="34.2"/>
</svg>