<?xml version="1.0" encoding="UTF-8"?>
<svg id="Layer_1" xmlns="http://www.w3.org/2000/svg" xmlns:xlink="http://www.w3.org/1999/xlink" version="1.1" viewBox="0 0 64 64">
  <!-- Generator: Adobe Illustrator 29.1.0, SVG Export Plug-In . SVG Version: 2.1.0 Build 142)  -->
  <defs>
    <style>
      .st0 {
        fill: url(#linear-gradient);
        stroke: #72b9d5;
        stroke-linejoin: round;
      }

      .st0, .st1, .st2, .st3, .st4, .st5, .st6, .st7, .st8, .st9 {
        stroke-linecap: round;
      }

      .st0, .st10 {
        stroke-width: .5px;
      }

      .st1 {
        stroke: url(#linear-gradient10);
      }

      .st1, .st2, .st3, .st4, .st5, .st6, .st7, .st8, .st9 {
        fill: none;
        stroke-width: 2px;
      }

      .st1, .st2, .st3, .st4, .st5, .st6, .st7, .st8, .st9, .st10 {
        stroke-miterlimit: 10;
      }

      .st2 {
        stroke: url(#linear-gradient2);
      }

      .st3 {
        stroke: url(#linear-gradient4);
      }

      .st4 {
        stroke: url(#linear-gradient5);
      }

      .st5 {
        stroke: url(#linear-gradient3);
      }

      .st6 {
        stroke: url(#linear-gradient7);
      }

      .st7 {
        stroke: url(#linear-gradient8);
      }

      .st8 {
        stroke: url(#linear-gradient6);
      }

      .st9 {
        stroke: url(#linear-gradient9);
      }

      .st10 {
        fill: url(#linear-gradient1);
        stroke: #e6effc;
      }
    </style>
    <linearGradient id="linear-gradient" x1="14" y1="741.1" x2="24.6" y2="759.4" gradientTransform="translate(0 -726)" gradientUnits="userSpaceOnUse">
      <stop offset="0" stop-color="#86c3db"/>
      <stop offset=".5" stop-color="#86c3db"/>
      <stop offset="1" stop-color="#5eafcf"/>
    </linearGradient>
    <linearGradient id="linear-gradient1" x1="22.6" y1="-682" x2="39.2" y2="-710.8" gradientTransform="translate(0 -660) scale(1 -1)" gradientUnits="userSpaceOnUse">
      <stop offset="0" stop-color="#f3f7fe"/>
      <stop offset=".5" stop-color="#f3f7fe"/>
      <stop offset="1" stop-color="#deeafb"/>
    </linearGradient>
    <linearGradient id="linear-gradient2" x1="21.3" y1="-704.3" x2="22.7" y2="-706.7" gradientTransform="translate(0 -660) scale(1 -1)" gradientUnits="userSpaceOnUse">
      <stop offset="0" stop-color="#4286ee"/>
      <stop offset=".5" stop-color="#4286ee"/>
      <stop offset="1" stop-color="#0950bc"/>
    </linearGradient>
    <linearGradient id="linear-gradient3" x1="29.3" y1="-704.3" x2="30.7" y2="-706.7" gradientTransform="translate(0 -660) scale(1 -1)" gradientUnits="userSpaceOnUse">
      <stop offset="0" stop-color="#4286ee"/>
      <stop offset=".5" stop-color="#4286ee"/>
      <stop offset="1" stop-color="#0950bc"/>
    </linearGradient>
    <linearGradient id="linear-gradient4" x1="36.3" y1="-704.3" x2="37.7" y2="-706.7" gradientTransform="translate(0 -660) scale(1 -1)" gradientUnits="userSpaceOnUse">
      <stop offset="0" stop-color="#4286ee"/>
      <stop offset=".5" stop-color="#4286ee"/>
      <stop offset="1" stop-color="#0950bc"/>
    </linearGradient>
    <linearGradient id="linear-gradient5" x1="25.7" y1="-708.2" x2="27.1" y2="-710.6" gradientTransform="translate(0 -660) scale(1 -1)" gradientUnits="userSpaceOnUse">
      <stop offset="0" stop-color="#4286ee"/>
      <stop offset=".5" stop-color="#4286ee"/>
      <stop offset="1" stop-color="#0950bc"/>
    </linearGradient>
    <linearGradient id="linear-gradient6" x1="33.4" y1="-708.2" x2="34.8" y2="-710.6" gradientTransform="translate(0 -660) scale(1 -1)" gradientUnits="userSpaceOnUse">
      <stop offset="0" stop-color="#4286ee"/>
      <stop offset=".5" stop-color="#4286ee"/>
      <stop offset="1" stop-color="#0950bc"/>
    </linearGradient>
    <linearGradient id="linear-gradient7" x1="43.6" y1="-704.3" x2="45" y2="-706.7" xlink:href="#linear-gradient2"/>
    <linearGradient id="linear-gradient8" x1="39.9" y1="-708.2" x2="41.3" y2="-710.6" xlink:href="#linear-gradient2"/>
    <linearGradient id="linear-gradient9" x1="29.5" y1="-711.4" x2="30.9" y2="-713.8" xlink:href="#linear-gradient2"/>
    <linearGradient id="linear-gradient10" x1="36" y1="-711.4" x2="37.4" y2="-713.8" xlink:href="#linear-gradient2"/>
  </defs>
  <path class="st0" d="M29.7,26.2c-5.9,0-10.6-4.7-10.7-10.5h0c0-.9.1-1.8.4-2.6-5.8.7-9.9,6-9.2,11.8.7,5.8,6,9.9,11.8,9.2,4.3-.5,7.8-3.6,8.9-7.8h-1.2,0Z"/>
  <path class="st10" d="M46.5,31.5h-.3c1.4-5.6-2.1-11.3-7.7-12.7-4.4-1.1-9,.8-11.4,4.7-3.3-2-7.6-.9-9.6,2.5-.6,1.1-1,2.3-1,3.5s0,.8.1,1.1c-4.1.8-6.7,4.7-5.9,8.8.7,3.5,3.7,6,7.3,6.1h28.5c3.9,0,7-3.1,7-7s-3.1-7-7-7Z"/>
  <line class="st2" x1="22.1" y1="45" x2="21.9" y2="46"/>
  <line class="st5" x1="30.1" y1="45" x2="29.9" y2="46"/>
  <line class="st3" x1="37.1" y1="45" x2="36.9" y2="46"/>
  <line class="st4" x1="26.5" y1="48.9" x2="26.3" y2="49.9"/>
  <line class="st8" x1="34.2" y1="48.9" x2="34" y2="49.9"/>
  <line class="st6" x1="44.4" y1="45" x2="44.2" y2="46"/>
  <line class="st7" x1="40.7" y1="48.9" x2="40.5" y2="49.9"/>
  <line class="st9" x1="30.3" y1="52.1" x2="30.1" y2="53.1"/>
  <line class="st1" x1="36.8" y1="52.1" x2="36.6" y2="53.1"/>
</svg>