<?xml version="1.0" encoding="UTF-8"?>
<svg id="Layer_1" xmlns="http://www.w3.org/2000/svg" xmlns:xlink="http://www.w3.org/1999/xlink" version="1.1" viewBox="0 0 64 64">
  <!-- Generator: Adobe Illustrator 29.1.0, SVG Export Plug-In . SVG Version: 2.1.0 Build 142)  -->
  <defs>
    <style>
      .st0 {
        stroke: #fbbf24;
      }

      .st0, .st1, .st2, .st3, .st4, .st5, .st6, .st7 {
        stroke-miterlimit: 10;
      }

      .st0, .st2, .st3, .st4, .st5, .st6 {
        fill: none;
        stroke-linecap: round;
        stroke-width: 2px;
      }

      .st1 {
        fill: url(#linear-gradient);
        stroke: #f8af18;
      }

      .st1, .st7 {
        stroke-width: .5px;
      }

      .st2 {
        stroke: url(#linear-gradient2);
      }

      .st3 {
        stroke: url(#linear-gradient4);
      }

      .st4 {
        stroke: url(#linear-gradient5);
      }

      .st5 {
        stroke: url(#linear-gradient3);
      }

      .st6 {
        stroke: url(#linear-gradient6);
      }

      .st7 {
        fill: url(#linear-gradient1);
        stroke: #e6effc;
      }
    </style>
    <linearGradient id="linear-gradient" x1="17.2" y1="1460.7" x2="22.2" y2="1469.3" gradientTransform="translate(0 -1452)" gradientUnits="userSpaceOnUse">
      <stop offset="0" stop-color="#fbbf24"/>
      <stop offset=".5" stop-color="#fbbf24"/>
      <stop offset="1" stop-color="#f59e0b"/>
    </linearGradient>
    <linearGradient id="linear-gradient1" x1="22.9" y1="-670.3" x2="39.5" y2="-699.2" gradientTransform="translate(0 -660) scale(1 -1)" gradientUnits="userSpaceOnUse">
      <stop offset="0" stop-color="#f3f7fe"/>
      <stop offset=".5" stop-color="#f3f7fe"/>
      <stop offset="1" stop-color="#deeafb"/>
    </linearGradient>
    <linearGradient id="linear-gradient2" x1="22.6" y1="-692.7" x2="24" y2="-695.1" gradientTransform="translate(0 -660) scale(1 -1)" gradientUnits="userSpaceOnUse">
      <stop offset="0" stop-color="#4286ee"/>
      <stop offset=".5" stop-color="#4286ee"/>
      <stop offset="1" stop-color="#0950bc"/>
    </linearGradient>
    <linearGradient id="linear-gradient3" x1="30.6" y1="-692.7" x2="32" y2="-695.1" gradientTransform="translate(0 -660) scale(1 -1)" gradientUnits="userSpaceOnUse">
      <stop offset="0" stop-color="#4286ee"/>
      <stop offset=".5" stop-color="#4286ee"/>
      <stop offset="1" stop-color="#0950bc"/>
    </linearGradient>
    <linearGradient id="linear-gradient4" x1="37.6" y1="-692.7" x2="39" y2="-695.1" gradientTransform="translate(0 -660) scale(1 -1)" gradientUnits="userSpaceOnUse">
      <stop offset="0" stop-color="#4286ee"/>
      <stop offset=".5" stop-color="#4286ee"/>
      <stop offset="1" stop-color="#0950bc"/>
    </linearGradient>
    <linearGradient id="linear-gradient5" x1="26" y1="-696.6" x2="27.4" y2="-699" gradientTransform="translate(0 -660) scale(1 -1)" gradientUnits="userSpaceOnUse">
      <stop offset="0" stop-color="#4286ee"/>
      <stop offset=".5" stop-color="#4286ee"/>
      <stop offset="1" stop-color="#0950bc"/>
    </linearGradient>
    <linearGradient id="linear-gradient6" x1="34.9" y1="-697.6" x2="36.3" y2="-700" gradientTransform="translate(0 -660) scale(1 -1)" gradientUnits="userSpaceOnUse">
      <stop offset="0" stop-color="#4286ee"/>
      <stop offset=".5" stop-color="#4286ee"/>
      <stop offset="1" stop-color="#0950bc"/>
    </linearGradient>
  </defs>
  <g>
    <circle class="st1" cx="19.7" cy="13" r="5"/>
    <path class="st0" d="M19.7,4.7V1.5M19.7,24.5v-3.2M25.6,7.1l2.2-2.2M11.6,21.1l2.2-2.2M13.8,7.1l-2.2-2.2M27.8,21.1l-2.2-2.2M8.2,13h3.2M31.2,13h-3.2"/>
  </g>
  <path class="st7" d="M46.8,19.9h-.3c1.4-5.6-2.1-11.3-7.7-12.7-4.4-1.1-9,.8-11.4,4.7-3.3-2-7.6-.9-9.6,2.5-.6,1.1-1,2.3-1,3.5s0,.8.1,1.1c-4.1.8-6.7,4.7-5.9,8.8.7,3.5,3.7,6,7.3,6.1h28.5c3.9,0,7-3.1,7-7s-3.1-7-7-7Z"/>
  <line class="st2" x1="23.4" y1="33.4" x2="23.2" y2="34.4"/>
  <line class="st5" x1="31.4" y1="33.4" x2="31.2" y2="34.4"/>
  <line class="st3" x1="38.4" y1="33.4" x2="38.2" y2="34.4"/>
  <line class="st4" x1="26.8" y1="37.3" x2="26.6" y2="38.3"/>
  <line class="st6" x1="35.7" y1="38.3" x2="35.5" y2="39.3"/>
</svg>