<?xml version="1.0" encoding="UTF-8"?>
<svg id="Layer_1" xmlns="http://www.w3.org/2000/svg" xmlns:xlink="http://www.w3.org/1999/xlink" version="1.1" viewBox="0 0 64 47.6">
  <!-- Generator: Adobe Illustrator 29.1.0, SVG Export Plug-In . SVG Version: 2.1.0 Build 142)  -->
  <defs>
    <style>
      .st0 {
        fill: url(#linear-gradient);
        stroke: #72b9d5;
        stroke-linejoin: round;
      }

      .st0, .st1, .st2, .st3, .st4, .st5 {
        stroke-linecap: round;
      }

      .st0, .st6 {
        stroke-width: .5px;
      }

      .st1 {
        stroke: url(#linear-gradient2);
      }

      .st1, .st2, .st3, .st4, .st5 {
        fill: none;
        stroke-width: 2px;
      }

      .st1, .st2, .st3, .st4, .st5, .st6 {
        stroke-miterlimit: 10;
      }

      .st2 {
        stroke: url(#linear-gradient4);
      }

      .st3 {
        stroke: url(#linear-gradient5);
      }

      .st4 {
        stroke: url(#linear-gradient3);
      }

      .st5 {
        stroke: url(#linear-gradient6);
      }

      .st6 {
        fill: url(#linear-gradient1);
        stroke: #e6effc;
      }
    </style>
    <linearGradient id="linear-gradient" x1="11.4" y1="-1405" x2="22" y2="-1423.3" gradientTransform="translate(0 -1402) scale(1 -1)" gradientUnits="userSpaceOnUse">
      <stop offset="0" stop-color="#86c3db"/>
      <stop offset=".5" stop-color="#86c3db"/>
      <stop offset="1" stop-color="#5eafcf"/>
    </linearGradient>
    <linearGradient id="linear-gradient1" x1="21.6" y1="-1412.2" x2="38.2" y2="-1441.1" gradientTransform="translate(0 -1402) scale(1 -1)" gradientUnits="userSpaceOnUse">
      <stop offset="0" stop-color="#f3f7fe"/>
      <stop offset=".5" stop-color="#f3f7fe"/>
      <stop offset="1" stop-color="#deeafb"/>
    </linearGradient>
    <linearGradient id="linear-gradient2" x1="21.3" y1="-1434.6" x2="22.7" y2="-1437" gradientTransform="translate(0 -1402) scale(1 -1)" gradientUnits="userSpaceOnUse">
      <stop offset="0" stop-color="#4286ee"/>
      <stop offset=".5" stop-color="#4286ee"/>
      <stop offset="1" stop-color="#0950bc"/>
    </linearGradient>
    <linearGradient id="linear-gradient3" x1="29.3" y1="-1434.6" x2="30.7" y2="-1437" gradientTransform="translate(0 -1402) scale(1 -1)" gradientUnits="userSpaceOnUse">
      <stop offset="0" stop-color="#4286ee"/>
      <stop offset=".5" stop-color="#4286ee"/>
      <stop offset="1" stop-color="#0950bc"/>
    </linearGradient>
    <linearGradient id="linear-gradient4" x1="36.3" y1="-1434.6" x2="37.7" y2="-1437" gradientTransform="translate(0 -1402) scale(1 -1)" gradientUnits="userSpaceOnUse">
      <stop offset="0" stop-color="#4286ee"/>
      <stop offset=".5" stop-color="#4286ee"/>
      <stop offset="1" stop-color="#0950bc"/>
    </linearGradient>
    <linearGradient id="linear-gradient5" x1="24.7" y1="-1438.5" x2="26.1" y2="-1440.9" gradientTransform="translate(0 -1402) scale(1 -1)" gradientUnits="userSpaceOnUse">
      <stop offset="0" stop-color="#4286ee"/>
      <stop offset=".5" stop-color="#4286ee"/>
      <stop offset="1" stop-color="#0950bc"/>
    </linearGradient>
    <linearGradient id="linear-gradient6" x1="33.6" y1="-1439.5" x2="35" y2="-1441.9" gradientTransform="translate(0 -1402) scale(1 -1)" gradientUnits="userSpaceOnUse">
      <stop offset="0" stop-color="#4286ee"/>
      <stop offset=".5" stop-color="#4286ee"/>
      <stop offset="1" stop-color="#0950bc"/>
    </linearGradient>
  </defs>
  <path class="st0" d="M27.1,14c-5.9,0-10.6-4.7-10.7-10.5h0c0-.9.1-1.8.4-2.6-5.8.7-9.9,6-9.2,11.8.7,5.8,6,9.9,11.8,9.2,4.3-.5,7.8-3.6,8.9-7.8h-1.2Z"/>
  <path class="st6" d="M45.5,19.8h-.3c1.4-5.6-2.1-11.3-7.7-12.7-4.4-1.1-9,.8-11.4,4.7-3.3-2-7.6-.9-9.6,2.5-.6,1.1-1,2.3-1,3.5s0,.8.1,1.1c-4.1.8-6.7,4.7-5.9,8.8.7,3.5,3.7,6,7.3,6.1h28.5c3.9,0,7-3.1,7-7s-3.1-7-7-7Z"/>
  <line class="st1" x1="22.1" y1="33.3" x2="21.9" y2="34.3"/>
  <line class="st4" x1="30.1" y1="33.3" x2="29.9" y2="34.3"/>
  <line class="st2" x1="37.1" y1="33.3" x2="36.9" y2="34.3"/>
  <line class="st3" x1="25.5" y1="37.2" x2="25.3" y2="38.2"/>
  <line class="st5" x1="34.4" y1="38.2" x2="34.2" y2="39.2"/>
</svg>