<?xml version="1.0" encoding="UTF-8"?>
<svg id="Layer_1" xmlns="http://www.w3.org/2000/svg" xmlns:xlink="http://www.w3.org/1999/xlink" version="1.1" viewBox="0 0 64 47.6">
  <!-- Generator: Adobe Illustrator 29.1.0, SVG Export Plug-In . SVG Version: 2.1.0 Build 142)  -->
  <defs>
    <style>
      .st0 {
        fill: none;
        stroke: #fbbf24;
        stroke-linecap: round;
        stroke-width: 2px;
      }

      .st0, .st1, .st2, .st3 {
        stroke-miterlimit: 10;
      }

      .st1 {
        fill: url(#linear-gradient);
        stroke: #f8af18;
      }

      .st1, .st2, .st3 {
        stroke-width: .5px;
      }

      .st2 {
        fill: url(#linear-gradient1);
        stroke: #848b98;
      }

      .st3 {
        fill: url(#linear-gradient2);
        stroke: #e6effc;
      }
    </style>
    <linearGradient id="linear-gradient" x1="14" y1="1480.1" x2="19" y2="1488.8" gradientTransform="translate(0 -1471.5)" gradientUnits="userSpaceOnUse">
      <stop offset="0" stop-color="#fbbf24"/>
      <stop offset=".5" stop-color="#fbbf24"/>
      <stop offset="1" stop-color="#f59e0b"/>
    </linearGradient>
    <linearGradient id="linear-gradient1" x1="39" y1="1482.8" x2="49.1" y2="1500.2" gradientTransform="translate(0 -1471.5)" gradientUnits="userSpaceOnUse">
      <stop offset="0" stop-color="#9ca3af"/>
      <stop offset=".5" stop-color="#9ca3af"/>
      <stop offset="1" stop-color="#6b7280"/>
    </linearGradient>
    <linearGradient id="linear-gradient2" x1="20.9" y1="1481.7" x2="37.5" y2="1510.6" gradientTransform="translate(0 -1471.5)" gradientUnits="userSpaceOnUse">
      <stop offset="0" stop-color="#f3f7fe"/>
      <stop offset=".5" stop-color="#f3f7fe"/>
      <stop offset="1" stop-color="#deeafb"/>
    </linearGradient>
  </defs>
  <g>
    <circle class="st1" cx="16.4" cy="12.9" r="5"/>
    <path class="st0" d="M16.4,4.5V1.3M16.4,24.4v-3.2M22.3,7l2.2-2.2M8.3,21l2.2-2.2M10.6,7l-2.2-2.2M24.6,21l-2.2-2.2M4.9,12.9h3.2M27.9,12.9h-3.2"/>
  </g>
  <path class="st2" d="M32.4,21.7c0,2.2,1.8,4,4,4h16.5c2.4,0,4.4-1.9,4.4-4.3s-1.5-3.9-3.6-4.3v-.7c0-2.2-1.8-4.1-4.1-4-.7,0-1.4.2-2.1.6-1.8-2.9-5.5-3.7-8.4-2-1.8,1.1-2.9,3.1-2.9,5.2s0,1,.2,1.5h-.2c-2.2,0-4.1,1.8-4.1,4,0,0,.3,0,.3,0Z"/>
  <path class="st3" d="M44.7,19.7h-.3c1.4-5.6-2.1-11.3-7.7-12.7-4.4-1.1-9,.8-11.4,4.7-3.3-2-7.6-.9-9.6,2.5-.6,1.1-1,2.3-1,3.5s0,.8,0,1.1c-4.1.8-6.7,4.7-5.9,8.8.7,3.5,3.7,6,7.3,6.1h28.5c3.9,0,7-3.1,7-7s-3.1-7-7-7Z"/>
</svg>