<?xml version="1.0" encoding="UTF-8"?>
<svg id="Layer_1" xmlns="http://www.w3.org/2000/svg" xmlns:xlink="http://www.w3.org/1999/xlink" version="1.1" viewBox="0 0 64 47.3">
  <!-- Generator: Adobe Illustrator 29.1.0, SVG Export Plug-In . SVG Version: 2.1.0 Build 142)  -->
  <defs>
    <style>
      .st0 {
        fill: url(#linear-gradient);
        stroke: #72b9d5;
        stroke-linecap: round;
        stroke-linejoin: round;
      }

      .st0, .st1 {
        stroke-width: .5px;
      }

      .st1 {
        fill: url(#linear-gradient1);
        stroke: #e6effc;
        stroke-miterlimit: 10;
      }
    </style>
    <linearGradient id="linear-gradient" x1="13" y1="62.1" x2="23.6" y2="43.8" gradientTransform="translate(0 66) scale(1 -1)" gradientUnits="userSpaceOnUse">
      <stop offset="0" stop-color="#86c3db"/>
      <stop offset=".5" stop-color="#86c3db"/>
      <stop offset="1" stop-color="#5eafcf"/>
    </linearGradient>
    <linearGradient id="linear-gradient1" x1="21.9" y1="55.6" x2="38.6" y2="26.8" gradientTransform="translate(0 66) scale(1 -1)" gradientUnits="userSpaceOnUse">
      <stop offset="0" stop-color="#f3f7fe"/>
      <stop offset=".5" stop-color="#f3f7fe"/>
      <stop offset="1" stop-color="#deeafb"/>
    </linearGradient>
  </defs>
  <path class="st0" d="M28.7,15.1c-5.9,0-10.6-4.7-10.7-10.5,0,0,0,0,0,0,0-.9.1-1.8.4-2.6-5.8.7-9.9,6-9.2,11.8.7,5.8,6,9.9,11.8,9.2,4.3-.5,7.8-3.6,8.9-7.8-.4,0-.8,0-1.2,0Z"/>
  <path class="st1" d="M45.9,19.9h-.3c1.4-5.6-2.1-11.3-7.7-12.7-4.4-1.1-9,.8-11.4,4.7-3.3-2-7.6-.9-9.6,2.5-.6,1.1-1,2.3-1,3.5,0,.4,0,.8.1,1.1-4.1.8-6.7,4.7-5.9,8.8.7,3.5,3.7,6,7.3,6.1.2,0,.3,0,.5,0h28c3.9,0,7-3.1,7-7s-3.1-7-7-7Z"/>
</svg>