<?xml version="1.0" encoding="UTF-8"?>
<svg id="Layer_1" xmlns="http://www.w3.org/2000/svg" xmlns:xlink="http://www.w3.org/1999/xlink" version="1.1" viewBox="0 0 64 47.7">
  <!-- Generator: Adobe Illustrator 29.1.0, SVG Export Plug-In . SVG Version: 2.1.0 Build 142)  -->
  <defs>
    <style>
      .st0 {
        fill: url(#linear-gradient);
        stroke: #72b9d5;
        stroke-linejoin: round;
      }

      .st0, .st1, .st2, .st3 {
        stroke-linecap: round;
      }

      .st0, .st4, .st5 {
        stroke-width: .5px;
      }

      .st1 {
        stroke: url(#linear-gradient7);
      }

      .st1, .st2, .st3, .st4, .st6, .st7, .st8, .st5 {
        stroke-miterlimit: 10;
      }

      .st1, .st2, .st3, .st6, .st7, .st8 {
        fill: none;
      }

      .st2 {
        stroke: url(#linear-gradient5);
      }

      .st3 {
        stroke: url(#linear-gradient3);
      }

      .st4 {
        fill: url(#linear-gradient8);
        stroke: #f6a823;
      }

      .st6 {
        stroke: url(#linear-gradient2);
      }

      .st7 {
        stroke: url(#linear-gradient6);
      }

      .st8 {
        stroke: url(#linear-gradient4);
      }

      .st5 {
        fill: url(#linear-gradient1);
        stroke: #e6effc;
      }
    </style>
    <linearGradient id="linear-gradient" x1="14.7" y1="62.6" x2="25.2" y2="44.3" gradientTransform="translate(0 66) scale(1 -1)" gradientUnits="userSpaceOnUse">
      <stop offset="0" stop-color="#86c3db"/>
      <stop offset=".5" stop-color="#86c3db"/>
      <stop offset="1" stop-color="#5eafcf"/>
    </linearGradient>
    <linearGradient id="linear-gradient1" x1="23.6" y1="56.2" x2="40.2" y2="27.4" gradientTransform="translate(0 66) scale(1 -1)" gradientUnits="userSpaceOnUse">
      <stop offset="0" stop-color="#f3f7fe"/>
      <stop offset=".5" stop-color="#f3f7fe"/>
      <stop offset="1" stop-color="#deeafb"/>
    </linearGradient>
    <linearGradient id="linear-gradient2" x1="31.1" y1="34.7" x2="32.9" y2="31.6" gradientTransform="translate(0 66) scale(1 -1)" gradientUnits="userSpaceOnUse">
      <stop offset="0" stop-color="#86c3db"/>
      <stop offset=".5" stop-color="#86c3db"/>
      <stop offset="1" stop-color="#5eafcf"/>
    </linearGradient>
    <linearGradient id="linear-gradient3" x1="30.7" y1="35.5" x2="33.3" y2="30.8" gradientTransform="translate(0 66) scale(1 -1)" gradientUnits="userSpaceOnUse">
      <stop offset="0" stop-color="#86c3db"/>
      <stop offset=".5" stop-color="#86c3db"/>
      <stop offset="1" stop-color="#5eafcf"/>
    </linearGradient>
    <linearGradient id="linear-gradient4" x1="24.1" y1="34.7" x2="25.9" y2="31.6" gradientTransform="translate(0 66) scale(1 -1)" gradientUnits="userSpaceOnUse">
      <stop offset="0" stop-color="#86c3db"/>
      <stop offset=".5" stop-color="#86c3db"/>
      <stop offset="1" stop-color="#5eafcf"/>
    </linearGradient>
    <linearGradient id="linear-gradient5" x1="23.7" y1="35.5" x2="26.3" y2="30.8" gradientTransform="translate(0 66) scale(1 -1)" gradientUnits="userSpaceOnUse">
      <stop offset="0" stop-color="#86c3db"/>
      <stop offset=".5" stop-color="#86c3db"/>
      <stop offset="1" stop-color="#5eafcf"/>
    </linearGradient>
    <linearGradient id="linear-gradient6" x1="38.1" y1="34.7" x2="39.9" y2="31.6" gradientTransform="translate(0 66) scale(1 -1)" gradientUnits="userSpaceOnUse">
      <stop offset="0" stop-color="#86c3db"/>
      <stop offset=".5" stop-color="#86c3db"/>
      <stop offset="1" stop-color="#5eafcf"/>
    </linearGradient>
    <linearGradient id="linear-gradient7" x1="37.7" y1="35.5" x2="40.3" y2="30.8" gradientTransform="translate(0 66) scale(1 -1)" gradientUnits="userSpaceOnUse">
      <stop offset="0" stop-color="#86c3db"/>
      <stop offset=".5" stop-color="#86c3db"/>
      <stop offset="1" stop-color="#5eafcf"/>
    </linearGradient>
    <linearGradient id="linear-gradient8" x1="27.7" y1="40.3" x2="36.8" y2="24.6" gradientTransform="translate(0 66) scale(1 -1)" gradientUnits="userSpaceOnUse">
      <stop offset="0" stop-color="#f7b23b"/>
      <stop offset=".5" stop-color="#f7b23b"/>
      <stop offset="1" stop-color="#f59e0b"/>
    </linearGradient>
  </defs>
  <path class="st0" d="M30.3,14.5c-5.9,0-10.6-4.7-10.7-10.5,0,0,0,0,0,0,0-.9.1-1.8.4-2.6-5.8.7-9.9,6-9.2,11.8.7,5.8,6,9.9,11.8,9.2,4.3-.5,7.8-3.6,8.9-7.8-.4,0-.8,0-1.2,0Z"/>
  <path class="st5" d="M47.5,19.4h-.3c1.4-5.6-2.1-11.3-7.7-12.7-4.4-1.1-9,.8-11.4,4.7-3.3-2-7.6-.9-9.6,2.5-.6,1.1-1,2.3-1,3.5,0,.4,0,.8.1,1.1-4.1.8-6.7,4.7-5.9,8.8.7,3.5,3.7,6,7.3,6.1.2,0,.3,0,.5,0h28c3.9,0,7-3.1,7-7s-3.1-7-7-7Z"/>
  <circle class="st6" cx="32" cy="32.9" r="1.3"/>
  <path class="st3" d="M34.2,34.1l-1.1-.6M30.9,32.2l-1.1-.6M32,30.4v1.2M32,35.4v-1.2M30.9,33.5l-1.1.6M34.2,31.6l-1.1.6"/>
  <circle class="st8" cx="25" cy="32.9" r="1.2"/>
  <path class="st2" d="M27.2,34.1l-1.1-.6M23.9,32.2l-1.1-.6M25,30.4v1.2M25,35.4v-1.2M23.9,33.5l-1.1.6M27.2,31.6l-1.1.6"/>
  <circle class="st7" cx="39" cy="32.9" r="1.2"/>
  <path class="st1" d="M41.2,34.1l-1.1-.6M37.9,32.2l-1.1-.6M39,30.4v1.2M39,35.4v-1.2M37.9,33.5l-1.1.6M41.2,31.6l-1.1.6"/>
  <polygon class="st4" points="31 23.9 27 35.9 31 35.9 29 45.9 39 31.9 33 31.9 37 23.9 31 23.9"/>
</svg>