<?xml version="1.0" encoding="UTF-8"?>
<svg id="Layer_1" xmlns="http://www.w3.org/2000/svg" xmlns:xlink="http://www.w3.org/1999/xlink" version="1.1" viewBox="0 0 64 47.7">
  <!-- Generator: Adobe Illustrator 29.1.0, SVG Export Plug-In . SVG Version: 2.1.0 Build 142)  -->
  <defs>
    <style>
      .st0 {
        fill: url(#linear-gradient);
        stroke: #72b9d5;
        stroke-linejoin: round;
      }

      .st0, .st1, .st2, .st3 {
        stroke-linecap: round;
      }

      .st0, .st4 {
        stroke-width: .5px;
      }

      .st1 {
        stroke: url(#linear-gradient2);
      }

      .st1, .st2, .st3 {
        fill: none;
        stroke-width: 2px;
      }

      .st1, .st2, .st3, .st4 {
        stroke-miterlimit: 10;
      }

      .st2 {
        stroke: url(#linear-gradient4);
      }

      .st3 {
        stroke: url(#linear-gradient3);
      }

      .st4 {
        fill: url(#linear-gradient1);
        stroke: #e6effc;
      }
    </style>
    <linearGradient id="linear-gradient" x1="15.6" y1="-664" x2="26.2" y2="-682.3" gradientTransform="translate(0 -660) scale(1 -1)" gradientUnits="userSpaceOnUse">
      <stop offset="0" stop-color="#86c3db"/>
      <stop offset=".5" stop-color="#86c3db"/>
      <stop offset="1" stop-color="#5eafcf"/>
    </linearGradient>
    <linearGradient id="linear-gradient1" x1="24.2" y1="1462.9" x2="40.8" y2="1491.7" gradientTransform="translate(0 -1452)" gradientUnits="userSpaceOnUse">
      <stop offset="0" stop-color="#f3f7fe"/>
      <stop offset=".5" stop-color="#f3f7fe"/>
      <stop offset="1" stop-color="#deeafb"/>
    </linearGradient>
    <linearGradient id="linear-gradient2" x1="24.9" y1="1485.2" x2="26.3" y2="1487.6" gradientTransform="translate(0 -1452)" gradientUnits="userSpaceOnUse">
      <stop offset="0" stop-color="#4286ee"/>
      <stop offset=".5" stop-color="#4286ee"/>
      <stop offset="1" stop-color="#0950bc"/>
    </linearGradient>
    <linearGradient id="linear-gradient3" x1="31.9" y1="1485.2" x2="33.3" y2="1487.6" gradientTransform="translate(0 -1452)" gradientUnits="userSpaceOnUse">
      <stop offset="0" stop-color="#4286ee"/>
      <stop offset=".5" stop-color="#4286ee"/>
      <stop offset="1" stop-color="#0950bc"/>
    </linearGradient>
    <linearGradient id="linear-gradient4" x1="38.9" y1="1485.2" x2="40.3" y2="1487.6" gradientTransform="translate(0 -1452)" gradientUnits="userSpaceOnUse">
      <stop offset="0" stop-color="#4286ee"/>
      <stop offset=".5" stop-color="#4286ee"/>
      <stop offset="1" stop-color="#0950bc"/>
    </linearGradient>
  </defs>
  <path class="st0" d="M31.3,15.1c-5.9,0-10.6-4.7-10.7-10.5h0c0-.9.1-1.8.4-2.6-5.8.7-9.9,6-9.2,11.8s6,9.9,11.8,9.2c4.3-.5,7.8-3.6,8.9-7.8h-1.2Z"/>
  <path class="st4" d="M48.1,20.4h-.3c1.4-5.6-2.1-11.3-7.7-12.7-4.4-1.1-9,.8-11.4,4.7-3.3-2-7.6-.9-9.6,2.5-.6,1.1-1,2.3-1,3.5s0,.8.1,1.1c-4.1.8-6.7,4.7-5.9,8.8.7,3.5,3.7,6,7.3,6.1h28.5c3.9,0,7-3.1,7-7s-3.1-7-7-7Z"/>
  <line class="st1" x1="25.7" y1="33.9" x2="25.5" y2="34.9"/>
  <line class="st3" x1="32.7" y1="33.9" x2="32.5" y2="34.9"/>
  <line class="st2" x1="39.7" y1="33.9" x2="39.5" y2="34.9"/>
</svg>