<?xml version="1.0" encoding="UTF-8"?>
<svg id="Layer_1" xmlns="http://www.w3.org/2000/svg" xmlns:xlink="http://www.w3.org/1999/xlink" version="1.1" viewBox="0 0 64 47.6">
  <!-- Generator: Adobe Illustrator 29.1.0, SVG Export Plug-In . SVG Version: 2.1.0 Build 142)  -->
  <defs>
    <style>
      .st0 {
        stroke: url(#linear-gradient2);
      }

      .st0, .st1, .st2 {
        fill: none;
        stroke-linecap: round;
        stroke-width: 2px;
      }

      .st0, .st1, .st2, .st3 {
        stroke-miterlimit: 10;
      }

      .st1 {
        stroke: url(#linear-gradient1);
      }

      .st2 {
        stroke: url(#linear-gradient3);
      }

      .st3 {
        fill: url(#linear-gradient);
        stroke: #e6effc;
        stroke-width: .5px;
      }
    </style>
    <linearGradient id="linear-gradient" x1="23.8" y1="736.4" x2="40.4" y2="765.2" gradientTransform="translate(0 -726)" gradientUnits="userSpaceOnUse">
      <stop offset="0" stop-color="#f3f7fe"/>
      <stop offset=".5" stop-color="#f3f7fe"/>
      <stop offset="1" stop-color="#deeafb"/>
    </linearGradient>
    <linearGradient id="linear-gradient1" x1="24.5" y1="758.7" x2="25.9" y2="761.1" gradientTransform="translate(0 -726)" gradientUnits="userSpaceOnUse">
      <stop offset="0" stop-color="#4286ee"/>
      <stop offset=".5" stop-color="#4286ee"/>
      <stop offset="1" stop-color="#0950bc"/>
    </linearGradient>
    <linearGradient id="linear-gradient2" x1="31.5" y1="758.7" x2="32.9" y2="761.1" gradientTransform="translate(0 -726)" gradientUnits="userSpaceOnUse">
      <stop offset="0" stop-color="#4286ee"/>
      <stop offset=".5" stop-color="#4286ee"/>
      <stop offset="1" stop-color="#0950bc"/>
    </linearGradient>
    <linearGradient id="linear-gradient3" x1="38.5" y1="758.7" x2="39.9" y2="761.1" gradientTransform="translate(0 -726)" gradientUnits="userSpaceOnUse">
      <stop offset="0" stop-color="#4286ee"/>
      <stop offset=".5" stop-color="#4286ee"/>
      <stop offset="1" stop-color="#0950bc"/>
    </linearGradient>
  </defs>
  <path class="st3" d="M47.7,19.9h-.3c1.4-5.6-2.1-11.3-7.7-12.7-4.4-1.1-9,.8-11.4,4.7-3.3-2-7.6-.9-9.6,2.5-.6,1.1-1,2.3-1,3.5s0,.8.1,1.1c-4.1.8-6.7,4.7-5.9,8.8.7,3.5,3.7,6,7.3,6.1h28.5c3.9,0,7-3.1,7-7s-3.1-7-7-7Z"/>
  <line class="st1" x1="25.3" y1="33.4" x2="25.1" y2="34.4"/>
  <line class="st0" x1="32.3" y1="33.4" x2="32.1" y2="34.4"/>
  <line class="st2" x1="39.3" y1="33.4" x2="39.1" y2="34.4"/>
</svg>