<?xml version="1.0" encoding="UTF-8"?>
<svg xmlns="http://www.w3.org/2000/svg" xmlns:xlink="http://www.w3.org/1999/xlink" version="1.1" viewBox="0 0 64 47.6">
  <defs>
    <style>
      .cls-1 {
        fill: url(#linear-gradient);
        stroke: #72b9d5;
        stroke-linejoin: round;
      }

      .cls-1, .cls-2, .cls-3, .cls-4, .cls-5, .cls-6, .cls-7, .cls-8, .cls-9, .cls-10 {
        stroke-linecap: round;
      }

      .cls-1, .cls-11 {
        stroke-width: .5px;
      }

      .cls-2 {
        stroke: url(#linear-gradient-6);
      }

      .cls-2, .cls-3, .cls-4, .cls-5, .cls-6, .cls-7, .cls-8, .cls-9, .cls-10 {
        fill: none;
        stroke-width: 2px;
      }

      .cls-2, .cls-3, .cls-4, .cls-5, .cls-6, .cls-7, .cls-8, .cls-9, .cls-10, .cls-11 {
        stroke-miterlimit: 10;
      }

      .cls-3 {
        stroke: url(#linear-gradient-8);
      }

      .cls-4 {
        stroke: url(#linear-gradient-9);
      }

      .cls-5 {
        stroke: url(#linear-gradient-4);
      }

      .cls-6 {
        stroke: url(#linear-gradient-3);
      }

      .cls-7 {
        stroke: url(#linear-gradient-7);
      }

      .cls-8 {
        stroke: url(#linear-gradient-5);
      }

      .cls-9 {
        stroke: url(#linear-gradient-11);
      }

      .cls-10 {
        stroke: url(#linear-gradient-10);
      }

      .cls-11 {
        fill: url(#linear-gradient-2);
        stroke: #e6effc;
      }
    </style>
    <linearGradient id="linear-gradient" x1="11.2" y1="-678.9" x2="21.8" y2="-697.2" gradientTransform="translate(0 -676) scale(1 -1)" gradientUnits="userSpaceOnUse">
      <stop offset="0" stop-color="#86c3db"/>
      <stop offset=".5" stop-color="#86c3db"/>
      <stop offset="1" stop-color="#5eafcf"/>
    </linearGradient>
    <linearGradient id="linear-gradient-2" x1="22" y1="1462.4" x2="38.6" y2="1491.2" gradientTransform="translate(0 -1452)" gradientUnits="userSpaceOnUse">
      <stop offset="0" stop-color="#f3f7fe"/>
      <stop offset=".5" stop-color="#f3f7fe"/>
      <stop offset="1" stop-color="#deeafb"/>
    </linearGradient>
    <linearGradient id="linear-gradient-3" x1="20.6" y1="1484.8" x2="22.1" y2="1487.2" gradientTransform="translate(0 -1452)" gradientUnits="userSpaceOnUse">
      <stop offset="0" stop-color="#4286ee"/>
      <stop offset=".5" stop-color="#4286ee"/>
      <stop offset="1" stop-color="#0950bc"/>
    </linearGradient>
    <linearGradient id="linear-gradient-4" x1="28.6" x2="30.1" y2="1487.2" xlink:href="#linear-gradient-3"/>
    <linearGradient id="linear-gradient-5" x1="35.6" x2="37.1" y2="1487.2" xlink:href="#linear-gradient-3"/>
    <linearGradient id="linear-gradient-6" x1="25" y1="1488.7" x2="26.4" y2="1491.1" xlink:href="#linear-gradient-3"/>
    <linearGradient id="linear-gradient-7" x1="32.7" y1="1488.7" x2="34.1" y2="1491.1" xlink:href="#linear-gradient-3"/>
    <linearGradient id="linear-gradient-8" x1="43" y1="1484.8" x2="44.4" y2="1487.2" xlink:href="#linear-gradient-3"/>
    <linearGradient id="linear-gradient-9" x1="39.2" y1="1488.7" x2="40.6" y2="1491.1" xlink:href="#linear-gradient-3"/>
    <linearGradient id="linear-gradient-10" x1="28.9" y1="1491.9" x2="30.3" y2="1494.3" xlink:href="#linear-gradient-3"/>
    <linearGradient id="linear-gradient-11" x1="35.4" y1="1491.9" x2="36.8" y2="1494.3" xlink:href="#linear-gradient-3"/>
  </defs>
  <!-- Generator: Adobe Illustrator 28.7.3, SVG Export Plug-In . SVG Version: 1.2.0 Build 164)  -->
  <g>
    <g id="Layer_1">
      <path class="cls-1" d="M26.9,14c-5.9,0-10.6-4.7-10.7-10.5h0c0-.9.1-1.8.4-2.6-5.8.7-9.9,6-9.2,11.8.7,5.8,6,9.9,11.8,9.2,4.3-.5,7.8-3.6,8.9-7.8h-1.2,0Z"/>
      <path class="cls-11" d="M45.9,20h-.3c1.4-5.6-2.1-11.3-7.7-12.7-4.4-1.1-9,.8-11.4,4.7-3.3-2-7.6-.9-9.6,2.5-.6,1.1-1,2.3-1,3.5s0,.8.1,1.1c-4.1.8-6.7,4.7-5.9,8.8.7,3.5,3.7,6,7.3,6.1h28.5c3.9,0,7-3.1,7-7s-3.1-7-7-7Z"/>
      <line class="cls-6" x1="21.5" y1="33.5" x2="21.2" y2="34.5"/>
      <line class="cls-5" x1="29.5" y1="33.5" x2="29.2" y2="34.5"/>
      <line class="cls-8" x1="36.4" y1="33.5" x2="36.3" y2="34.5"/>
      <line class="cls-2" x1="25.9" y1="37.4" x2="25.6" y2="38.4"/>
      <line class="cls-7" x1="33.6" y1="37.4" x2="33.4" y2="38.4"/>
      <line class="cls-3" x1="43.8" y1="33.5" x2="43.6" y2="34.5"/>
      <line class="cls-4" x1="40.1" y1="37.4" x2="39.9" y2="38.4"/>
      <line class="cls-10" x1="29.6" y1="40.6" x2="29.5" y2="41.6"/>
      <line class="cls-9" x1="36.1" y1="40.6" x2="35.9" y2="41.6"/>
    </g>
  </g>
</svg>