<?xml version="1.0" encoding="UTF-8"?>
<svg id="Layer_1" xmlns="http://www.w3.org/2000/svg" xmlns:xlink="http://www.w3.org/1999/xlink" version="1.1" viewBox="0 0 64 64">
  <!-- Generator: Adobe Illustrator 29.1.0, SVG Export Plug-In . SVG Version: 2.1.0 Build 142)  -->
  <defs>
    <style>
      .st0 {
        fill: url(#linear-gradient1);
        stroke: #72b9d5;
        stroke-linecap: round;
        stroke-linejoin: round;
      }

      .st0, .st1 {
        stroke-width: .5px;
      }

      .st1 {
        fill: url(#linear-gradient);
        stroke: #e6effc;
        stroke-miterlimit: 10;
      }
    </style>
    <linearGradient id="linear-gradient" x1="24.8" y1="1480.1" x2="39.7" y2="1506.1" gradientTransform="translate(0 -1472.7)" gradientUnits="userSpaceOnUse">
      <stop offset="0" stop-color="#f3f7fe"/>
      <stop offset=".5" stop-color="#f3f7fe"/>
      <stop offset="1" stop-color="#deeafb"/>
    </linearGradient>
    <linearGradient id="linear-gradient1" x1="14.4" y1="-690.9" x2="26.5" y2="-711.8" gradientTransform="translate(0 -688) scale(1 -1)" gradientUnits="userSpaceOnUse">
      <stop offset="0" stop-color="#86c3db"/>
      <stop offset=".5" stop-color="#86c3db"/>
      <stop offset="1" stop-color="#5eafcf"/>
    </linearGradient>
  </defs>
  <path class="st1" d="M48.3,16.3h-.3c1.5-4.2-2.2-8.5-8.2-9.5-4.7-.8-9.6.6-12.2,3.5-3.5-1.5-8.1-.7-10.3,1.9-.6.8-1.1,1.7-1.1,2.6s0,.6.1.8c-4.4.6-7.2,3.5-6.3,6.6.7,2.6,4,4.5,7.8,4.6h30.5c4.2,0,7.5-2.3,7.5-5.2s-3.3-5.2-7.5-5.2h0Z"/>
  <path class="st0" d="M32.3,15.6c-6.7,0-12.2-5.3-12.2-12h0c0-1,.1-2,.4-3-6.6.8-11.3,6.8-10.5,13.4.8,6.6,6.8,11.3,13.4,10.5,4.9-.6,8.9-4.1,10.2-8.9h-1.3Z"/>
</svg>