<?xml version="1.0" encoding="UTF-8"?>
<svg xmlns="http://www.w3.org/2000/svg" xmlns:xlink="http://www.w3.org/1999/xlink" version="1.1" viewBox="0 0 64 47.6">
  <defs>
    <style>
      .cls-1 {
        stroke: url(#linear-gradient-2);
      }

      .cls-1, .cls-2, .cls-3 {
        fill: none;
        stroke-linecap: round;
        stroke-width: 2px;
      }

      .cls-1, .cls-2, .cls-3, .cls-4 {
        stroke-miterlimit: 10;
      }

      .cls-2 {
        stroke: url(#linear-gradient-4);
      }

      .cls-3 {
        stroke: url(#linear-gradient-3);
      }

      .cls-4 {
        fill: url(#linear-gradient);
        stroke: #e6effc;
        stroke-width: .5px;
      }
    </style>
    <linearGradient id="linear-gradient" x1="21.7" y1="1462.2" x2="38.3" y2="1491" gradientTransform="translate(0 -1452)" gradientUnits="userSpaceOnUse">
      <stop offset="0" stop-color="#f3f7fe"/>
      <stop offset=".5" stop-color="#f3f7fe"/>
      <stop offset="1" stop-color="#deeafb"/>
    </linearGradient>
    <linearGradient id="linear-gradient-2" x1="21.6" y1="1483.2" x2="24.6" y2="1488.4" gradientTransform="translate(0 -1452)" gradientUnits="userSpaceOnUse">
      <stop offset="0" stop-color="#4286ee"/>
      <stop offset=".5" stop-color="#4286ee"/>
      <stop offset="1" stop-color="#0950bc"/>
    </linearGradient>
    <linearGradient id="linear-gradient-3" x1="28.6" y1="1483.2" x2="31.6" y2="1488.4" gradientTransform="translate(0 -1452)" gradientUnits="userSpaceOnUse">
      <stop offset="0" stop-color="#4286ee"/>
      <stop offset=".5" stop-color="#4286ee"/>
      <stop offset="1" stop-color="#0950bc"/>
    </linearGradient>
    <linearGradient id="linear-gradient-4" x1="35.6" y1="1483.2" x2="38.6" y2="1488.4" gradientTransform="translate(0 -1452)" gradientUnits="userSpaceOnUse">
      <stop offset="0" stop-color="#4286ee"/>
      <stop offset=".5" stop-color="#4286ee"/>
      <stop offset="1" stop-color="#0950bc"/>
    </linearGradient>
  </defs>
  <!-- Generator: Adobe Illustrator 28.7.3, SVG Export Plug-In . SVG Version: 1.2.0 Build 164)  -->
  <g>
    <g id="Layer_1">
      <g>
        <path class="cls-4" d="M45.6,19.8h-.3c1.4-5.6-2.1-11.3-7.7-12.7-4.4-1.1-9,.8-11.4,4.7-3.3-2-7.6-.9-9.6,2.5-.6,1.1-1,2.3-1,3.5s0,.8.1,1.1c-4.1.8-6.7,4.7-5.9,8.8.7,3.5,3.7,6,7.3,6.1h28.5c3.9,0,7-3.1,7-7s-3.1-7-7-7Z"/>
        <line class="cls-1" x1="23.5" y1="31.3" x2="22.7" y2="36.3"/>
        <line class="cls-3" x1="30.5" y1="31.3" x2="29.7" y2="36.3"/>
        <line class="cls-2" x1="37.5" y1="31.3" x2="36.7" y2="36.3"/>
      </g>
    </g>
  </g>
</svg>