<?xml version="1.0" encoding="UTF-8"?>
<svg id="Layer_1" xmlns="http://www.w3.org/2000/svg" xmlns:xlink="http://www.w3.org/1999/xlink" version="1.1" viewBox="0 0 64 47.8">
  <!-- Generator: Adobe Illustrator 29.1.0, SVG Export Plug-In . SVG Version: 2.1.0 Build 142)  -->
  <defs>
    <style>
      .st0 {
        stroke: #fbbf24;
        stroke-width: 2px;
      }

      .st0, .st1, .st2, .st3, .st4, .st5, .st6, .st7, .st8, .st9 {
        stroke-miterlimit: 10;
      }

      .st0, .st2, .st3, .st4 {
        stroke-linecap: round;
      }

      .st0, .st2, .st3, .st4, .st6, .st7, .st8 {
        fill: none;
      }

      .st1 {
        fill: url(#linear-gradient);
        stroke: #f8af18;
      }

      .st1, .st5, .st9 {
        stroke-width: .5px;
      }

      .st2 {
        stroke: url(#linear-gradient2);
      }

      .st3 {
        stroke: url(#linear-gradient7);
      }

      .st4 {
        stroke: url(#linear-gradient4);
      }

      .st5 {
        fill: url(#linear-gradient8);
        stroke: #f6a823;
      }

      .st6 {
        stroke: url(#linear-gradient6);
      }

      .st7 {
        stroke: url(#linear-gradient3);
      }

      .st8 {
        stroke: url(#linear-gradient5);
      }

      .st9 {
        fill: url(#linear-gradient1);
        stroke: #e6effc;
      }
    </style>
    <linearGradient id="linear-gradient" x1="16.5" y1="57" x2="21.5" y2="48.3" gradientTransform="translate(0 66) scale(1 -1)" gradientUnits="userSpaceOnUse">
      <stop offset="0" stop-color="#fbbf24"/>
      <stop offset=".5" stop-color="#fbbf24"/>
      <stop offset="1" stop-color="#f59e0b"/>
    </linearGradient>
    <linearGradient id="linear-gradient1" x1="22.6" y1="55.7" x2="39.2" y2="26.9" gradientTransform="translate(0 66) scale(1 -1)" gradientUnits="userSpaceOnUse">
      <stop offset="0" stop-color="#f3f7fe"/>
      <stop offset=".5" stop-color="#f3f7fe"/>
      <stop offset="1" stop-color="#deeafb"/>
    </linearGradient>
    <linearGradient id="linear-gradient2" x1="29.7" y1="35" x2="32.3" y2="30.3" gradientTransform="translate(0 66) scale(1 -1)" gradientUnits="userSpaceOnUse">
      <stop offset="0" stop-color="#86c3db"/>
      <stop offset=".5" stop-color="#86c3db"/>
      <stop offset="1" stop-color="#5eafcf"/>
    </linearGradient>
    <linearGradient id="linear-gradient3" x1="37.1" y1="34.2" x2="38.9" y2="31.1" gradientTransform="translate(0 66) scale(1 -1)" gradientUnits="userSpaceOnUse">
      <stop offset="0" stop-color="#86c3db"/>
      <stop offset=".5" stop-color="#86c3db"/>
      <stop offset="1" stop-color="#5eafcf"/>
    </linearGradient>
    <linearGradient id="linear-gradient4" x1="36.7" y1="35" x2="39.3" y2="30.3" gradientTransform="translate(0 66) scale(1 -1)" gradientUnits="userSpaceOnUse">
      <stop offset="0" stop-color="#86c3db"/>
      <stop offset=".5" stop-color="#86c3db"/>
      <stop offset="1" stop-color="#5eafcf"/>
    </linearGradient>
    <linearGradient id="linear-gradient5" x1="30.1" y1="34.2" x2="31.9" y2="31.1" gradientTransform="translate(0 66) scale(1 -1)" gradientUnits="userSpaceOnUse">
      <stop offset="0" stop-color="#86c3db"/>
      <stop offset=".5" stop-color="#86c3db"/>
      <stop offset="1" stop-color="#5eafcf"/>
    </linearGradient>
    <linearGradient id="linear-gradient6" x1="23.1" y1="34.2" x2="24.9" y2="31.1" gradientTransform="translate(0 66) scale(1 -1)" gradientUnits="userSpaceOnUse">
      <stop offset="0" stop-color="#86c3db"/>
      <stop offset=".5" stop-color="#86c3db"/>
      <stop offset="1" stop-color="#5eafcf"/>
    </linearGradient>
    <linearGradient id="linear-gradient7" x1="22.7" y1="35" x2="25.3" y2="30.3" gradientTransform="translate(0 66) scale(1 -1)" gradientUnits="userSpaceOnUse">
      <stop offset="0" stop-color="#86c3db"/>
      <stop offset=".5" stop-color="#86c3db"/>
      <stop offset="1" stop-color="#5eafcf"/>
    </linearGradient>
    <linearGradient id="linear-gradient8" x1="26.7" y1="39.8" x2="35.8" y2="24.1" gradientTransform="translate(0 66) scale(1 -1)" gradientUnits="userSpaceOnUse">
      <stop offset="0" stop-color="#f7b23b"/>
      <stop offset=".5" stop-color="#f7b23b"/>
      <stop offset="1" stop-color="#f59e0b"/>
    </linearGradient>
  </defs>
  <g>
    <circle class="st1" cx="19" cy="13.4" r="5"/>
    <path class="st0" d="M19,5V1.9M19,24.9v-3.2M24.9,7.5l2.2-2.2M10.9,21.5l2.2-2.2M13.1,7.5l-2.2-2.2M27.1,21.5l-2.2-2.2M7.5,13.4h3.2M30.5,13.4h-3.2"/>
  </g>
  <path class="st9" d="M46.5,19.9h-.3c1.4-5.6-2.1-11.3-7.7-12.7-4.4-1.1-9,.8-11.4,4.7-3.3-2-7.6-.9-9.6,2.5-.6,1.1-1,2.3-1,3.5,0,.4,0,.8.1,1.1-4.1.8-6.7,4.7-5.9,8.8.7,3.5,3.7,6,7.3,6.1.2,0,.3,0,.5,0h28c3.9,0,7-3.1,7-7s-3.1-7-7-7Z"/>
  <path class="st2" d="M33.2,34.6l-1.1-.6M29.9,32.7l-1.1-.6M31,30.9v1.2M31,35.9v-1.2M29.9,34l-1.1.6M33.2,32.1l-1.1.6"/>
  <circle class="st7" cx="38" cy="33.4" r="1.2"/>
  <path class="st4" d="M40.2,34.6l-1.1-.6M36.9,32.7l-1.1-.6M38,30.9v1.2M38,35.9v-1.2M36.9,34l-1.1.6M40.2,32.1l-1.1.6"/>
  <circle class="st8" cx="31" cy="33.4" r="1.2"/>
  <circle class="st6" cx="24" cy="33.4" r="1.2"/>
  <path class="st3" d="M26.2,34.6l-1.1-.6M22.9,32.7l-1.1-.6M24,30.9v1.2M24,35.9v-1.2M22.9,34l-1.1.6M26.2,32.1l-1.1.6"/>
  <polygon class="st5" points="30 24.4 26 36.4 30 36.4 28 46.4 38 32.4 32 32.4 36 24.4 30 24.4"/>
</svg>