<?xml version="1.0" encoding="UTF-8"?>
<svg id="Layer_1" xmlns="http://www.w3.org/2000/svg" xmlns:xlink="http://www.w3.org/1999/xlink" version="1.1" viewBox="0 0 64 47.2">
  <!-- Generator: Adobe Illustrator 29.1.0, SVG Export Plug-In . SVG Version: 2.1.0 Build 142)  -->
  <defs>
    <style>
      .st0 {
        fill: url(#linear-gradient4);
        stroke: #f6a823;
      }

      .st0, .st1, .st2, .st3, .st4 {
        stroke-miterlimit: 10;
      }

      .st0, .st4 {
        stroke-width: .5px;
      }

      .st1 {
        stroke: url(#linear-gradient2);
      }

      .st1, .st2, .st3 {
        fill: none;
        stroke-linecap: round;
        stroke-width: 2px;
      }

      .st2 {
        stroke: url(#linear-gradient1);
      }

      .st3 {
        stroke: url(#linear-gradient3);
      }

      .st4 {
        fill: url(#linear-gradient);
        stroke: #e6effc;
      }
    </style>
    <linearGradient id="linear-gradient" x1="23.6" y1="736.4" x2="40.2" y2="765.2" gradientTransform="translate(0 -726)" gradientUnits="userSpaceOnUse">
      <stop offset="0" stop-color="#f3f7fe"/>
      <stop offset=".5" stop-color="#f3f7fe"/>
      <stop offset="1" stop-color="#deeafb"/>
    </linearGradient>
    <linearGradient id="linear-gradient1" x1="23.6" y1="757" x2="26.5" y2="762.1" gradientTransform="translate(0 -726)" gradientUnits="userSpaceOnUse">
      <stop offset="0" stop-color="#4286ee"/>
      <stop offset=".5" stop-color="#4286ee"/>
      <stop offset="1" stop-color="#0950bc"/>
    </linearGradient>
    <linearGradient id="linear-gradient2" x1="30.6" y1="757" x2="33.5" y2="762.1" gradientTransform="translate(0 -726)" gradientUnits="userSpaceOnUse">
      <stop offset="0" stop-color="#4286ee"/>
      <stop offset=".5" stop-color="#4286ee"/>
      <stop offset="1" stop-color="#0950bc"/>
    </linearGradient>
    <linearGradient id="linear-gradient3" x1="37.6" y1="757" x2="40.5" y2="762.1" gradientTransform="translate(0 -726)" gradientUnits="userSpaceOnUse">
      <stop offset="0" stop-color="#4286ee"/>
      <stop offset=".5" stop-color="#4286ee"/>
      <stop offset="1" stop-color="#0950bc"/>
    </linearGradient>
    <linearGradient id="linear-gradient4" x1="27.8" y1="751.9" x2="36.8" y2="767.6" gradientTransform="translate(0 -726)" gradientUnits="userSpaceOnUse">
      <stop offset="0" stop-color="#f7b23b"/>
      <stop offset=".5" stop-color="#f7b23b"/>
      <stop offset="1" stop-color="#f59e0b"/>
    </linearGradient>
  </defs>
  <path class="st4" d="M47.5,19.9h-.3c1.4-5.6-2.1-11.3-7.7-12.7-4.4-1.1-9,.8-11.4,4.7-3.3-2-7.6-.9-9.6,2.5-.6,1.1-1,2.3-1,3.5s0,.8.1,1.1c-4.1.8-6.7,4.7-5.9,8.8.7,3.5,3.7,6,7.3,6.1h28.5c3.9,0,7-3.1,7-7s-3.1-7-7-7Z"/>
  <line class="st2" x1="25.4" y1="31.1" x2="24.6" y2="36"/>
  <line class="st1" x1="32.4" y1="31.1" x2="31.6" y2="36"/>
  <line class="st3" x1="39.4" y1="31.1" x2="38.6" y2="36"/>
  <polygon class="st0" points="31 24 27 36 31 36 29 46 39 32 33 32 37 24 31 24"/>
</svg>