<?xml version="1.0" encoding="UTF-8"?>
<svg id="Layer_1" xmlns="http://www.w3.org/2000/svg" xmlns:xlink="http://www.w3.org/1999/xlink" version="1.1" viewBox="0 0 64 47.6">
  <!-- Generator: Adobe Illustrator 29.1.0, SVG Export Plug-In . SVG Version: 2.1.0 Build 142)  -->
  <defs>
    <style>
      .st0 {
        stroke: url(#linear-gradient2);
      }

      .st0, .st1, .st2 {
        stroke-linecap: round;
      }

      .st0, .st1, .st2, .st3, .st4, .st5, .st6, .st7 {
        stroke-miterlimit: 10;
      }

      .st0, .st1, .st2, .st4, .st5, .st6 {
        fill: none;
      }

      .st1 {
        stroke: url(#linear-gradient6);
      }

      .st2 {
        stroke: url(#linear-gradient4);
      }

      .st3 {
        fill: url(#linear-gradient7);
        stroke: #f6a823;
      }

      .st3, .st7 {
        stroke-width: .5px;
      }

      .st4 {
        stroke: url(#linear-gradient1);
      }

      .st5 {
        stroke: url(#linear-gradient3);
      }

      .st6 {
        stroke: url(#linear-gradient5);
      }

      .st7 {
        fill: url(#linear-gradient);
        stroke: #e6effc;
      }
    </style>
    <linearGradient id="linear-gradient" x1="23.7" y1="56.1" x2="40.4" y2="27.3" gradientTransform="translate(0 66) scale(1 -1)" gradientUnits="userSpaceOnUse">
      <stop offset="0" stop-color="#f3f7fe"/>
      <stop offset=".5" stop-color="#f3f7fe"/>
      <stop offset="1" stop-color="#deeafb"/>
    </linearGradient>
    <linearGradient id="linear-gradient1" x1="31.3" y1="34.6" x2="33" y2="31.5" gradientTransform="translate(0 66) scale(1 -1)" gradientUnits="userSpaceOnUse">
      <stop offset="0" stop-color="#86c3db"/>
      <stop offset=".5" stop-color="#86c3db"/>
      <stop offset="1" stop-color="#5eafcf"/>
    </linearGradient>
    <linearGradient id="linear-gradient2" x1="30.8" y1="35.4" x2="33.5" y2="30.8" gradientTransform="translate(0 66) scale(1 -1)" gradientUnits="userSpaceOnUse">
      <stop offset="0" stop-color="#86c3db"/>
      <stop offset=".5" stop-color="#86c3db"/>
      <stop offset="1" stop-color="#5eafcf"/>
    </linearGradient>
    <linearGradient id="linear-gradient3" x1="24.3" y1="34.6" x2="26" y2="31.5" gradientTransform="translate(0 66) scale(1 -1)" gradientUnits="userSpaceOnUse">
      <stop offset="0" stop-color="#86c3db"/>
      <stop offset=".5" stop-color="#86c3db"/>
      <stop offset="1" stop-color="#5eafcf"/>
    </linearGradient>
    <linearGradient id="linear-gradient4" x1="23.8" y1="35.4" x2="26.5" y2="30.8" gradientTransform="translate(0 66) scale(1 -1)" gradientUnits="userSpaceOnUse">
      <stop offset="0" stop-color="#86c3db"/>
      <stop offset=".5" stop-color="#86c3db"/>
      <stop offset="1" stop-color="#5eafcf"/>
    </linearGradient>
    <linearGradient id="linear-gradient5" x1="38.3" y1="34.6" x2="40" y2="31.5" gradientTransform="translate(0 66) scale(1 -1)" gradientUnits="userSpaceOnUse">
      <stop offset="0" stop-color="#86c3db"/>
      <stop offset=".5" stop-color="#86c3db"/>
      <stop offset="1" stop-color="#5eafcf"/>
    </linearGradient>
    <linearGradient id="linear-gradient6" x1="37.8" y1="35.4" x2="40.5" y2="30.8" gradientTransform="translate(0 66) scale(1 -1)" gradientUnits="userSpaceOnUse">
      <stop offset="0" stop-color="#86c3db"/>
      <stop offset=".5" stop-color="#86c3db"/>
      <stop offset="1" stop-color="#5eafcf"/>
    </linearGradient>
    <linearGradient id="linear-gradient7" x1="27.9" y1="40.2" x2="36.9" y2="24.5" gradientTransform="translate(0 66) scale(1 -1)" gradientUnits="userSpaceOnUse">
      <stop offset="0" stop-color="#f7b23b"/>
      <stop offset=".5" stop-color="#f7b23b"/>
      <stop offset="1" stop-color="#f59e0b"/>
    </linearGradient>
  </defs>
  <path class="st7" d="M47.6,19.4h-.3c1.4-5.6-2.1-11.3-7.7-12.7-4.4-1.1-9,.8-11.4,4.7-3.3-2-7.6-.9-9.6,2.5-.6,1.1-1,2.3-1,3.5,0,.4,0,.8.1,1.1-4.1.8-6.7,4.7-5.9,8.8.7,3.5,3.7,6,7.3,6.1.2,0,.3,0,.5,0h28c3.9,0,7-3.1,7-7s-3.1-7-7-7Z"/>
  <circle class="st4" cx="32.1" cy="32.9" r="1.2"/>
  <path class="st0" d="M34.3,34.2l-1.1-.6M31.1,32.3l-1.1-.6M32.1,30.4v1.2M32.1,35.4v-1.2M31.1,33.6l-1.1.6M34.3,31.7l-1.1.6"/>
  <circle class="st5" cx="25.1" cy="32.9" r="1.3"/>
  <path class="st2" d="M27.3,34.2l-1.1-.6M24.1,32.3l-1.1-.6M25.1,30.4v1.2M25.1,35.4v-1.2M24.1,33.6l-1.1.6M27.3,31.7l-1.1.6"/>
  <circle class="st6" cx="39.1" cy="32.9" r="1.3"/>
  <path class="st1" d="M41.3,34.2l-1.1-.6M38.1,32.3l-1.1-.6M39.1,30.4v1.2M39.1,35.4v-1.2M38.1,33.6l-1.1.6M41.3,31.7l-1.1.6"/>
  <polygon class="st3" points="31.1 23.9 27.1 35.9 31.1 35.9 29.1 45.9 39.1 31.9 33.1 31.9 37.1 23.9 31.1 23.9"/>
</svg>